<?xml version="1.0" encoding="UTF-8"?> <svg xmlns="http://www.w3.org/2000/svg" width="73.761" height="50.036"><g data-name="Grupo 13" fill-rule="evenodd"><path data-name="Trazado 22" d="M33.477 6.185L44.159 0l18.787 32.418h-14.4l-14.6-24.964-.7-1.145z"></path><path data-name="Trazado 23" d="M20.757 17.705l10.886-6.32 12.109 21.033h-14.42l-8.576-14.713z"></path><path data-name="Trazado 24" d="M8.027 28.795l10.92-5.931 5.8 9.552H9.762l-1.838-3.565z"></path><path data-name="Trazado 25" d="M6.639 37.545a6.941 6.941 0 013.917 1.166v-1.262h3.132v12.3h-3.132v-.894a6.975 6.975 0 01-3.917 1.169 6.25 6.25 0 110-12.476zm56.286 7.7h3.139a1.721 1.721 0 00.959 1.658 3.36 3.36 0 002.947 0 1.114 1.114 0 00-.2-2.026 10.022 10.022 0 01-2.347-.55 7.934 7.934 0 01-2.926-.734 3.586 3.586 0 01-1.173-2.948 2.427 2.427 0 01.581-1.634 4.116 4.116 0 011.957-1.107 5.308 5.308 0 012.538-.363c1.572 0 2.735.172 3.52.913a2.916 2.916 0 011.367 2.569l-2.926.177c-.2-.555-.2-.909-.591-1.276a2.322 2.322 0 00-1.37-.374 3.529 3.529 0 00-1.559.185c-.59.556-.59 1.107-.2 1.465a4.651 4.651 0 002.344.735c1.378.369 2.336.564 2.937.747a4.209 4.209 0 011.367 1.279 2.3 2.3 0 01.387 2.014 3.416 3.416 0 01-.579 1.84 3.08 3.08 0 01-1.776 1.282 5.822 5.822 0 01-2.723.558 5.513 5.513 0 01-3.714-1.106 4.078 4.078 0 01-1.955-3.3zM44.27 49.284h2.937V33.492H44.27v5.355a6.391 6.391 0 00-3.822-1.306 6.316 6.316 0 00-6.445 6.052c0 3.31 2.934 5.875 6.445 5.875a6.568 6.568 0 003.822-1.231zM40.448 40.1a3.462 3.462 0 013.721 3.312 3.6 3.6 0 01-3.721 3.491 3.555 3.555 0 01-3.511-3.491 3.4 3.4 0 013.511-3.312zm-15.534 9.184h2.942V33.492h-2.942v5.239a6.693 6.693 0 00-3.811-1.19 6.13 6.13 0 00-6.243 6.052 5.981 5.981 0 006.243 5.875 6.859 6.859 0 003.811-1.133zm0-6.614v1.488a3.815 3.815 0 01-3.609 2.745 3.751 3.751 0 01-3.722-3.491 3.6 3.6 0 013.722-3.312 3.718 3.718 0 013.609 2.57zm33.616 6.614h2.934V37.541H58.53v1.252a6.453 6.453 0 00-10.26 4.8c0 3.31 2.934 5.875 6.456 5.875a6.6 6.6 0 003.8-1.183v1zm-3.8-9.184a3.455 3.455 0 013.7 3.312 3.6 3.6 0 01-3.7 3.491 3.558 3.558 0 01-3.522-3.491A3.407 3.407 0 0154.73 40.1zm-24.927-3.76h2.939v-2.749h-2.939zm0 12.944h2.939V37.541h-2.939zM6.839 40.1a3.5 3.5 0 013.721 3.493 3.64 3.64 0 01-3.721 3.671 3.808 3.808 0 01-3.907-3.671A3.668 3.668 0 016.839 40.1z"></path></g></svg> 