<?xml version="1.0" encoding="UTF-8"?> <svg xmlns="http://www.w3.org/2000/svg" width="87.309" height="45.615"><g data-name="Grupo 17"><g data-name="Grupo 16"><path data-name="Trazado 34" d="M14.635 27.924a1.194 1.194 0 101.238 1.195 1.181 1.181 0 00-1.238-1.195zm0 2.045a.852.852 0 11.862-.85.842.842 0 01-.862.85z"></path><path data-name="Trazado 35" d="M26.68 23.746h-6.026l.685-10.474-3.916 10.474h-5.6L20.701.072h5.954l-.687 10.617L29.955.072h5.6z"></path><path data-name="Trazado 36" d="M27.406 23.746L36.285.072h5.6l-8.878 23.674z"></path><path data-name="Trazado 37" d="M11.185 15.585c-7.819 9.183-15.2 21.4-8.68 27.028 6.313 5.452 14.2 2.224 19.585.072s64.852-27.978 64.852-27.978c.574-.287.466-.646-.251-.466-.289.072-64.745 17.54-64.745 17.54-8.179 2.295-17.505-2.709-10.761-16.196z"></path><path data-name="Trazado 38" d="M14.846 29.202a.3.3 0 00.309-.338c0-.31-.2-.388-.541-.388h-.486v1.284h.324v-.546h.055l.295.546h.373zm-.208-.208h-.185v-.3h.156c.1 0 .205.012.205.136s-.063.164-.176.164z"></path><path data-name="Trazado 39" d="M70.885 0a1.194 1.194 0 101.238 1.195A1.18 1.18 0 0070.885 0zm0 2.045a.852.852 0 11.862-.85.842.842 0 01-.862.85z"></path><path data-name="Trazado 40" d="M71.096 1.278a.3.3 0 00.309-.338c0-.31-.2-.388-.541-.388h-.486v1.284h.324v-.547h.055l.295.547h.373zm-.208-.208h-.185v-.3h.156c.1 0 .205.012.205.136s-.063.164-.176.164z"></path><path data-name="Trazado 41" d="M67.198 4.018l1.5-3.946h-17.07l-5.863 7.1 2.706-7.1h-5.667l-8.807 23.674h5.6l3.76-9.9.258 9.9 17.169-.037 1.635-4.554h-6.528l2.145-5.739h5.381l1.655-4.412h-5.38l1.845-4.986zm-18.036 18.15l-.358-12.339L57.264.54z"></path></g></g></svg> 