<?xml version="1.0" encoding="UTF-8"?> <svg xmlns="http://www.w3.org/2000/svg" width="90.167" height="46.498"><g data-name="Grupo 14" fill-rule="evenodd"><path data-name="Trazado 27" d="M10.823 23.035H.758c-.734 0-.734 0-.734.566v20.612c-.017-.019-.017 0-.024.018v.017a.535.535 0 00.564.442h4.867c.474 0 .474 0 .474-.435v-4.15c0-.564 0-.645.55-.645h4.368c2.318-.116 2.892-.668 2.892-3.35V25.824c0-2.282-.574-2.789-2.892-2.789zm-3 12.8a.96.96 0 11-1.917-.06v-9.4a.959.959 0 111.917.034z"></path><path data-name="Trazado 28" d="M29.565 23.545c0-.507-.1-.346-.545-.507h-4.809c-.529 0-.529 0-.529.507l-.014 17.049c0 1.682-1.864 1.637-1.864 0V23.545c0-.507 0-.507-.488-.507h-5.03c-.592 0-.592 0-.592.507v18.047c0 2.666.592 3.1 2.2 3.1h9.311c1.813 0 2.422-.5 2.358-2.933V23.544z"></path><path data-name="Trazado 29" d="M50.53 23.035H33.958c-1.97 0-2.571.507-2.571 2.47v18.75c0 .435 0 .435.6.435h4.632c.653 0 .653 0 .653-.435V26.597c0-1.547 1.868-1.708 1.868 0v17.658c0 .435 0 .435.693.435h4.64c.55 0 .55 0 .55-.435V26.597c0-1.467 1.862-1.547 1.862 0v17.658c0 .435 0 .435.584.435h4.771c.532 0 .532 0 .532-.435V25.388c0-1.846-.589-2.353-2.243-2.353z"></path><path data-name="Trazado 30" d="M66.636 23.035h-9.417c-1.557 0-2.2.507-2.2 2.371v18.849c0 .435 0 .435.644.435h4.655c.588 0 .588 0 .588-.435v-4.216a1 1 0 01.934-1 .939.939 0 01.939 1.062v4.15c0 .435 0 .435.588.435h4.825c.474 0 .474 0 .474-.435V25.384c0-1.846-.487-2.353-2.029-2.353zm-3.858 12.8a.85.85 0 01-.939.857.866.866 0 01-.934-.857v-9.237a.906.906 0 01.934-.951.935.935 0 01.939.951z"></path><path data-name="Trazado 31" d="M73.82 41.315h-.04a2.592 2.592 0 100 5.184h.04a2.592 2.592 0 100-5.183zm2.013 2.82a2.071 2.071 0 01-2.013 1.842 2.5 2.5 0 01-.809-.143 2.085 2.085 0 01.809-4 1.966 1.966 0 011.548.76 2.258 2.258 0 01.465 1.541z"></path><path data-name="Trazado 32" d="M74.642 43.965a.917.917 0 00.281-.689.754.754 0 00-.343-.626 1.3 1.3 0 00-.76-.275h-1.1l-.01 3.107h.5l-.008-1.215h.383l.24.335.649.857h.48l-.937-1.214a1.084 1.084 0 00.63-.28zm-.918-.088h-.519l-.008-1.17h.527c.047 0 .071.012.1.012a.818.818 0 01.417.163.538.538 0 01.216.394.531.531 0 01-.216.429.677.677 0 01-.417.172z"></path><path data-name="Trazado 33" d="M89.824 1.015c-.447-.736-1.406-.508-2.566.057-1.511.662-4.214 3.717-4.869 5.427a16.148 16.148 0 01-4.206 7.129c-2.247 1.863-6.245 1.128-8.536-.36-.153 0-9.616-7.507-9.616-7.507-3.393-2.728-5.75-3.905-8.612-4.252a.879.879 0 01-.312-.336C50.659.161 50.576.254 50.262 0a2.91 2.91 0 01-1.017.582.4.4 0 01-.3-.069 2.575 2.575 0 00-.714-.317c-.278.058-.52.64-.912 1.226 0 0-.645.583-1.25 1.095-.227.192-.266.516-.42.706-.309.352-.687.922-.742.922-.139.408-.2.766.055.971a.808.808 0 00.326.668.886.886 0 00.18.3 2.141 2.141 0 00.488.14 2.163 2.163 0 002.357.7c1.829.138 1.671.765 1.632 1.708a.649.649 0 01-.282.2c-.825 0-1.67-.178-2.493-.178-1.79.148-3.333.475-3.189 2.683.111.855 1.643 2.054 2.443.434.114-.753.729-.411 1.265-.246 3.2 1.423 5.779 2.145 7.475.678.511-.661.831-.189 1.366.2 2.57 3.119 6.269 5.146 11.964 5.219 1.874.486 3.331 1.278 4.044 3.167 1.764 4.6 4 8.3 7.273 10.234-.266 2.905-.159 5.3 2.732 5.932.746-.633-.309-1.576.569-3.7-.073-.946-.878-1.723-1.159-3.527-3.351-2.8-1.927-3.942-2.432-5.807a13.99 13.99 0 00-1.758-6.884c-.137-.333.088-.574.386-.748a9.256 9.256 0 003.381-4.229 11.078 11.078 0 013.579-5.719c1.432-1.157 2.793-1.533 4.348-2.563.951-1.61.81-2.036.37-2.766z"></path></g></svg> 